HIERARCHY
ROOT joint_Root
{
	OFFSET 0.0 0.0 0.0
	CHANNELS 6 Xposition Yposition Zposition Zrotation Xrotation Yrotation 
	JOINT Hips
	{
		OFFSET 4.5925 91.4895 -427.239
		CHANNELS 6 Xposition Yposition Zposition Zrotation Xrotation Yrotation 
		JOINT Spine
		{
			OFFSET 15.7357 0.0 0.0
			CHANNELS 6 Xposition Yposition Zposition Zrotation Xrotation Yrotation 
			JOINT Chest
			{
				OFFSET 8.98455 -0.406207 0.0
				CHANNELS 6 Xposition Yposition Zposition Zrotation Xrotation Yrotation 
				JOINT Neck
				{
					OFFSET 16.3773 0.0 0.0
					CHANNELS 6 Xposition Yposition Zposition Zrotation Xrotation Yrotation 
					JOINT Head
					{
						OFFSET 6.45672 0.0 0.0
						CHANNELS 6 Xposition Yposition Zposition Zrotation Xrotation Yrotation 
						End Site
						{
							OFFSET 0.0 0.0 0.0
						}
					}
				}
				JOINT Shoulder_L
				{
					OFFSET 12.9942 -0.242716 4.98039
					CHANNELS 6 Xposition Yposition Zposition Zrotation Xrotation Yrotation 
					JOINT UpperArm_L
					{
						OFFSET 5.34809 0.0 0.0
						CHANNELS 6 Xposition Yposition Zposition Zrotation Xrotation Yrotation 
						JOINT LowerArm_L
						{
							OFFSET 24.3286 1.87007e-05 0.0
							CHANNELS 6 Xposition Yposition Zposition Zrotation Xrotation Yrotation 
							JOINT Hand_L
							{
								OFFSET 22.2916 0.0 0.0
								CHANNELS 6 Xposition Yposition Zposition Zrotation Xrotation Yrotation 
								End Site
								{
									OFFSET 0.0 0.0 0.0
								}
							}
						}
					}
				}
				JOINT Shoulder_R
				{
					OFFSET 12.9945 -0.242716 -4.98039
					CHANNELS 6 Xposition Yposition Zposition Zrotation Xrotation Yrotation 
					JOINT UpperArm_R
					{
						OFFSET -5.34813 0.0 0.0
						CHANNELS 6 Xposition Yposition Zposition Zrotation Xrotation Yrotation 
						JOINT LowerArm_R
						{
							OFFSET -24.3289 0.000322201 0.0
							CHANNELS 6 Xposition Yposition Zposition Zrotation Xrotation Yrotation 
							JOINT Hand_R
							{
								OFFSET -22.2915 -0.000108084 0.0
								CHANNELS 6 Xposition Yposition Zposition Zrotation Xrotation Yrotation 
								End Site
								{
									OFFSET 0.0 0.0 0.0
								}
							}
						}
					}
				}
			}
		}
		JOINT UpperLeg_L
		{
			OFFSET -2.19248 -6.46944 0.0
			CHANNELS 6 Xposition Yposition Zposition Zrotation Xrotation Yrotation 
			JOINT LowerLeg_L
			{
				OFFSET 39.0811 0.0 -1.23785e-05
				CHANNELS 6 Xposition Yposition Zposition Zrotation Xrotation Yrotation 
				JOINT Foot_L
				{
					OFFSET 40.9854 0.0 -1.26872e-05
					CHANNELS 6 Xposition Yposition Zposition Zrotation Xrotation Yrotation 
					JOINT Toes_L
					{
						OFFSET 11.7543 0.0 0.0
						CHANNELS 6 Xposition Yposition Zposition Zrotation Xrotation Yrotation 
						End Site
						{
							OFFSET 0.0 0.0 0.0
						}
					}
				}
			}
		}
		JOINT UpperLeg_R
		{
			OFFSET -2.19251 6.46944 0.0
			CHANNELS 6 Xposition Yposition Zposition Zrotation Xrotation Yrotation 
			JOINT LowerLeg_R
			{
				OFFSET -39.0811 -0.00228153 -0.0401928
				CHANNELS 6 Xposition Yposition Zposition Zrotation Xrotation Yrotation 
				JOINT Foot_R
				{
					OFFSET -40.9854 0.0 0.0
					CHANNELS 6 Xposition Yposition Zposition Zrotation Xrotation Yrotation 
					JOINT Toes_R
					{
						OFFSET -11.7543 0.0 0.0
						CHANNELS 6 Xposition Yposition Zposition Zrotation Xrotation Yrotation 
						End Site
						{
							OFFSET 0.0 0.0 0.0
						}
					}
				}
			}
		}
	}
}
MOTION
Frames:	4
Frame Time:	0.0333333
0.000000 0.000000 0.000000 0.000000 0.000000 -0.000000 4.224890 81.893600 476.964000 -88.243400 5.339780 171.219000 15.735700 0.000005 -0.000001 88.831800 81.294600 -86.503100 8.984550 -0.406207 -0.000000 9.652020 -0.314494 4.680530 16.377300 -0.000001 -0.000001 -1.815750 -1.053590 4.537380 6.456720 -0.000001 -0.000000 -4.938970 1.950530 8.281080 12.994200 -0.242716 4.980390 -90.661500 2.135880 -72.786700 5.348090 -0.000007 -0.000001 -68.031100 36.332300 -3.215810 24.328600 0.000019 0.000005 30.644800 0.899739 -88.484300 22.291600 -0.000001 0.000005 4.892410 5.475970 -5.590680 12.994500 -0.242716 -4.980390 87.783100 9.891520 -77.300500 -5.348130 -0.000001 -0.000004 -51.969700 43.145600 -24.026600 -24.328900 0.000322 -0.000009 -19.780800 8.580750 -112.533000 -22.291500 -0.000108 -0.000004 27.075200 5.651870 -15.197500 -2.192480 -6.469440 -0.000000 -176.101000 0.441834 -30.037300 39.081100 -0.000007 -0.000012 -0.116286 -0.013479 96.617000 40.985400 -0.000006 -0.000013 5.219460 -6.208110 -48.966900 11.754300 -0.000000 0.000003 -0.013875 -0.130622 -21.904500 -2.192510 6.469440 -0.000001 -174.875000 8.741530 156.573000 -39.081100 -0.002282 -0.040193 0.087476 -0.054691 57.013100 -40.985400 0.000008 0.000006 9.053190 -1.691960 -92.663400 -11.754300 -0.000006 -0.000006 -0.125524 -0.159394 -16.980100
0.000000 0.000000 0.000000 0.000000 0.000000 -0.000000 4.074530 83.156100 471.557000 -90.027300 5.774390 170.878000 15.735700 0.000005 -0.000001 97.236600 81.617300 -95.952500 8.984550 -0.406207 -0.000000 8.847820 2.113230 2.402600 16.377300 -0.000001 -0.000001 -1.015710 -0.905606 4.710460 6.456720 -0.000001 -0.000000 -3.667650 0.696586 8.554360 12.994200 -0.242716 4.980390 -90.666000 1.897520 -70.654500 5.348090 -0.000007 -0.000001 -66.493500 37.880200 3.034920 24.328600 0.000019 0.000005 22.811900 -1.512690 -93.594600 22.291600 -0.000001 0.000005 3.903760 5.457550 -4.911660 12.994500 -0.242716 -4.980390 88.301800 7.922290 -77.860400 -5.348130 -0.000001 -0.000004 -51.395600 42.134900 -30.711900 -24.328900 0.000322 -0.000009 -14.603200 7.476790 -116.541000 -22.291500 -0.000108 -0.000004 25.360200 5.651530 -15.162500 -2.192480 -6.469440 -0.000000 -177.704000 1.542490 -37.102800 39.081100 -0.000007 -0.000012 -0.090141 -0.011570 97.320100 40.985400 -0.000006 -0.000013 6.530730 -6.861520 -53.894900 11.754300 -0.000000 0.000003 -0.012072 -0.118531 -21.409000 -2.192510 6.469440 -0.000001 -178.070000 9.855690 163.028000 -39.081100 -0.002282 -0.040193 0.069572 -0.054398 50.643200 -40.985400 0.000008 0.000006 8.778440 0.129694 -91.186100 -11.754300 -0.000006 -0.000006 -0.984699 -1.186420 -18.542800
0.000000 0.000000 0.000000 0.000000 0.000000 -0.000000 3.794470 85.340000 465.511000 -92.142600 5.562450 170.549000 15.735700 0.000005 -0.000001 105.023000 81.816500 -104.896000 8.984550 -0.406207 -0.000000 8.053310 4.224460 -0.042396 16.377300 -0.000001 -0.000001 -0.482374 -1.228230 4.432480 6.456720 -0.000001 -0.000000 -2.952800 -1.052700 8.578200 12.994200 -0.242716 4.980390 -90.477000 1.236670 -68.905100 5.348090 -0.000007 -0.000001 -64.857600 39.312800 7.793160 24.328600 0.000019 0.000005 17.760900 -2.816050 -98.721300 22.291600 -0.000001 0.000005 3.545150 5.463120 -5.115560 12.994500 -0.242716 -4.980390 88.619500 6.464370 -77.918300 -5.348130 -0.000001 -0.000004 -51.785500 40.759400 -32.150500 -24.328900 0.000322 -0.000009 -12.492900 7.269840 -119.732000 -22.291500 -0.000108 -0.000004 22.983000 5.644470 -14.501400 -2.192480 -6.469440 -0.000000 -179.902000 2.992500 -40.954800 39.081100 -0.000007 -0.000012 -0.046436 -0.001021 91.270200 40.985400 -0.000006 -0.000013 7.082510 -7.711210 -58.172600 11.754300 -0.000000 0.000003 -0.011812 -0.116722 -21.334900 -2.192510 6.469440 -0.000001 178.569000 9.851430 169.876000 -39.081100 -0.002282 -0.040193 0.042768 -0.042864 42.658600 -40.985400 0.000008 0.000006 8.363420 1.336600 -83.311400 -11.754300 -0.000006 -0.000006 -0.897544 -1.017860 -23.602800
0.000000 0.000000 0.000000 0.000000 0.000000 -0.000000 3.545810 87.964200 459.410000 -93.527500 4.941780 169.125000 15.735700 0.000005 -0.000001 111.827000 82.302000 -112.633000 8.984550 -0.406207 -0.000000 6.592200 5.714860 -1.940680 16.377300 -0.000001 -0.000001 -0.060765 -1.529730 3.775000 6.456720 -0.000001 -0.000000 -2.694390 -2.381030 7.448110 12.994200 -0.242716 4.980390 -90.069000 0.166364 -67.459700 5.348090 -0.000007 -0.000001 -64.049600 39.291900 11.765400 24.328600 0.000019 0.000005 15.436000 -3.543760 -102.618000 22.291600 -0.000001 0.000005 2.882490 5.454340 -4.795490 12.994500 -0.242716 -4.980390 88.751400 5.752130 -77.730600 -5.348130 -0.000001 -0.000004 -52.514600 40.090800 -30.523900 -24.328900 0.000322 -0.000009 -11.957400 7.201100 -120.621000 -22.291500 -0.000108 -0.000004 21.194600 5.625190 -12.981800 -2.192480 -6.469440 -0.000000 178.738000 4.072160 -43.219300 39.081100 -0.000007 -0.000012 -0.005290 0.000956 79.831200 40.985400 -0.000006 -0.000013 6.154930 -8.368020 -61.617700 11.754300 -0.000000 0.000003 -0.010414 -0.106719 -20.925400 -2.192510 6.469440 -0.000001 175.889000 12.049300 174.049000 -39.081100 -0.002282 -0.040193 0.041746 -0.051714 36.637600 -40.985400 0.000008 0.000006 8.307810 4.749120 -71.836100 -11.754300 -0.000006 -0.000006 -0.082400 -0.398603 -33.132200
